<?xml version="1.0" standalone="no"?>
<!DOCTYPE svg PUBLIC "-//W3C//DTD SVG 20010904//EN"
 "http://www.w3.org/TR/2001/REC-SVG-20010904/DTD/svg10.dtd">
<svg version="1.0" xmlns="http://www.w3.org/2000/svg"
 width="560.000000pt" height="560.000000pt" viewBox="0 0 560.000000 560.000000"
 preserveAspectRatio="xMidYMid meet">
<metadata>
Created by potrace 1.14, written by Peter Selinger 2001-2017
</metadata>
<g transform="translate(0.000000,560.000000) scale(0.100000,-0.100000)"
fill="#000000" stroke="none">
<path d="M2592 5000 c-56 -23 -44 -127 16 -142 83 -21 139 90 67 133 -33 21
-49 22 -83 9z"/>
<path d="M557 4969 c-86 -13 -148 -41 -196 -90 -52 -51 -77 -111 -89 -209 -4
-36 -7 -418 -6 -850 1 -732 2 -788 19 -830 35 -88 88 -145 175 -188 48 -24 67
-27 150 -27 82 0 103 4 150 26 77 37 134 94 167 164 l27 60 2 452 2 451 -72 4
c-39 2 -109 1 -156 -2 l-85 -5 -2 -46 c-3 -56 -3 -56 114 -54 l83 2 -3 -396
-2 -396 -29 -48 c-76 -128 -250 -151 -354 -47 -72 72 -69 40 -67 935 1 556 5
810 13 834 13 39 39 80 61 99 26 21 93 50 131 56 31 4 167 9 227 7 l22 -1 0
-250 c0 -138 3 -255 6 -260 3 -5 30 -9 59 -8 l54 2 -2 311 -1 310 -175 0 c-96
0 -197 -3 -223 -6z"/>
<path d="M3269 4573 c0 -10 -1 -54 -2 -98 l-2 -80 -61 -3 c-68 -3 -74 -9 -64
-72 l5 -36 57 1 c44 1 59 -3 62 -15 2 -8 4 -292 4 -630 0 -338 3 -633 6 -654
21 -132 125 -216 265 -216 l51 0 0 53 0 52 -38 1 c-57 1 -88 11 -115 37 -52
49 -51 44 -52 725 0 349 2 637 5 641 3 3 50 7 105 7 l100 0 1 52 1 52 -103 0
c-76 0 -104 3 -105 13 -1 6 -2 50 -3 97 l-1 85 -57 3 c-50 3 -58 1 -59 -15z"/>
<path d="M4278 4424 c-2 -1 -21 -5 -43 -8 -50 -8 -118 -48 -143 -84 -44 -63
-57 -97 -68 -181 l-5 -43 57 6 c32 3 58 7 60 9 1 1 4 21 8 45 9 71 39 115 93
137 69 29 151 -2 187 -70 19 -37 20 -57 21 -270 l0 -229 -90 -2 c-121 -3 -163
-11 -210 -39 -49 -29 -71 -54 -99 -114 -20 -44 -21 -60 -21 -415 l0 -368 147
1 c178 1 211 6 266 38 51 30 86 73 108 134 24 65 27 1161 4 1255 -28 109 -100
174 -212 192 -32 5 -59 8 -60 6z m166 -1099 c0 -265 -2 -304 -18 -333 -22 -42
-48 -68 -78 -78 -33 -10 -198 -12 -204 -2 -3 5 -6 138 -6 296 0 332 4 354 74
396 36 21 51 24 137 22 l96 -1 -1 -300z"/>
<path d="M5287 4398 c-104 -22 -176 -101 -192 -212 -6 -36 -11 -1284 -6 -1373
1 -9 20 -13 59 -13 l57 0 0 688 c0 643 1 691 18 728 10 23 33 49 50 60 38 22
34 21 97 23 50 1 51 2 70 43 10 24 16 46 11 51 -11 11 -120 15 -164 5z"/>
<path d="M1484 3678 c2 -702 2 -714 23 -759 47 -104 137 -154 261 -147 99 5
175 50 217 128 37 70 38 99 39 803 l1 688 -59 -3 -59 -3 -1 -690 -1 -690 -22
-45 c-25 -51 -65 -79 -120 -84 -66 -6 -122 29 -150 95 -8 19 -12 212 -12 635
0 335 0 648 -1 697 l0 87 -59 0 -59 0 2 -712z"/>
<path d="M2570 3595 l0 -795 60 0 60 0 0 795 0 795 -60 0 -60 0 0 -795z"/>
<path d="M202 2502 c-2 -7 -2 -15 1 -18 3 -3 540 -5 1194 -5 l1189 -1 -1 -141
0 -142 -695 -2 c-382 -1 -703 -2 -712 -2 -10 -1 -18 -8 -18 -16 0 -10 10 -15
33 -15 17 -1 340 -1 716 -1 l684 0 -8 -312 c-4 -172 -9 -367 -11 -434 -3 -125
7 -183 32 -183 19 0 44 54 88 185 64 191 90 205 101 54 8 -130 17 -185 33
-219 15 -30 24 -36 64 -44 35 -7 55 -6 75 4 l28 14 -44 6 c-46 7 -80 38 -82
75 0 11 -2 29 -4 40 -3 11 -7 61 -10 110 -3 50 -8 104 -11 122 -7 39 -43 66
-65 49 -30 -21 -66 -91 -104 -198 -38 -110 -59 -138 -57 -78 0 9 14 204 17
235 18 208 26 342 30 458 l3 112 1383 2 c761 1 1394 2 1407 3 13 0 22 6 22 15
0 11 -12 15 -42 16 -24 0 -656 0 -1405 0 l-1363 1 -1 71 c0 40 -2 104 -3 144
l-3 71 1381 1 c759 0 1393 0 1409 1 45 0 35 30 -10 30 -21 1 -1207 2 -2637 3
-2117 2 -2599 0 -2604 -11z"/>
<path d="M4367 1868 c-9 -5 -9 -10 -1 -18 9 -9 157 -12 525 -11 283 0 531 0
552 0 26 1 37 5 37 16 0 11 -12 15 -42 16 -357 4 -1063 2 -1071 -3z"/>
<path d="M2068 1833 c-31 -32 -50 -106 -43 -160 3 -21 17 -59 31 -85 20 -37
22 -51 14 -73 -20 -52 -74 -160 -88 -177 -13 -16 -13 -18 0 -18 8 0 33 37 58
88 25 48 48 93 53 99 6 9 22 -6 54 -49 25 -34 46 -66 48 -72 1 -6 5 -18 9 -26
14 -34 -7 -86 -43 -104 -47 -24 -83 -7 -83 38 0 34 -14 33 -33 -4 -27 -53 -13
-96 35 -104 73 -11 164 102 163 204 -1 51 -27 101 -88 169 -32 35 -34 40 -24
72 31 102 30 219 -2 219 -4 0 -14 2 -21 5 -8 3 -26 -7 -40 -22z m43 -59 c5
-85 0 -144 -12 -144 -19 0 -52 90 -45 128 8 55 54 67 57 16z"/>
<path d="M3952 1797 c-11 -13 -27 -73 -38 -143 -3 -20 -8 -46 -10 -58 -3 -11
-7 -86 -10 -166 -6 -191 -8 -208 -32 -261 -57 -124 -112 -283 -148 -424 -31
-120 -33 -131 -39 -174 -3 -18 -7 -36 -9 -40 -7 -10 -19 -144 -20 -221 -3
-118 28 -230 76 -271 48 -40 118 1 163 97 82 174 114 464 91 844 -4 69 -9 171
-12 227 l-6 102 45 68 c83 127 167 182 210 138 42 -41 3 -121 -119 -243 -41
-41 -74 -76 -74 -78 0 -39 223 175 258 247 57 118 -7 186 -119 128 -49 -24
-127 -103 -171 -171 -17 -26 -33 -46 -35 -44 -6 6 -4 336 2 371 7 37 12 85 9
85 -1 0 -6 -6 -12 -13z m-56 -747 c11 -136 11 -585 1 -675 -20 -194 -56 -296
-105 -303 -31 -5 -62 51 -79 143 -8 46 -8 212 0 285 12 111 16 130 52 293 21
93 114 372 121 364 2 -1 6 -50 10 -107z"/>
<path d="M3373 1636 c-120 -42 -197 -184 -169 -314 6 -28 42 -79 64 -91 31
-16 94 -21 134 -10 43 11 138 97 138 124 0 8 5 15 12 15 6 0 9 3 5 6 -3 3 -1
17 4 31 10 28 13 105 5 142 -18 83 -107 128 -193 97z m93 -77 c48 -45 62 -146
29 -218 -17 -38 -73 -79 -105 -76 -67 4 -107 41 -128 117 -18 67 9 171 49 183
10 4 19 10 19 15 0 12 50 17 84 8 16 -4 40 -17 52 -29z"/>
<path d="M4697 1552 c-25 -5 -21 -32 6 -32 32 -1 706 -1 745 -1 21 1 32 6 32
16 0 11 -12 15 -42 16 -236 2 -728 3 -741 1z"/>
</g>
</svg>
