<svg width="12" height="8" viewBox="0 0 12 8" fill="none" xmlns="http://www.w3.org/2000/svg">
<path fill-rule="evenodd" clip-rule="evenodd" d="M8.14592 0.645917C8.19236 0.599354 8.24754 0.562411 8.30828 0.537204C8.36903 0.511998 8.43415 0.499023 8.49992 0.499023C8.56568 0.499023 8.63081 0.511998 8.69155 0.537204C8.7523 0.562411 8.80747 0.599354 8.85392 0.645917L11.8539 3.64592C11.9005 3.69236 11.9374 3.74754 11.9626 3.80828C11.9878 3.86903 12.0008 3.93415 12.0008 3.99992C12.0008 4.06568 11.9878 4.13081 11.9626 4.19155C11.9374 4.2523 11.9005 4.30747 11.8539 4.35392L8.85392 7.35392C8.76003 7.4478 8.63269 7.50055 8.49992 7.50055C8.36714 7.50055 8.2398 7.4478 8.14592 7.35392C8.05203 7.26003 7.99929 7.13269 7.99929 6.99992C7.99929 6.86714 8.05203 6.7398 8.14592 6.64592L10.7929 3.99992L8.14592 1.35392C8.09935 1.30747 8.06241 1.2523 8.0372 1.19155C8.012 1.13081 7.99902 1.06568 7.99902 0.999917C7.99902 0.93415 8.012 0.869028 8.0372 0.808283C8.06241 0.747538 8.09935 0.692363 8.14592 0.645917Z" fill="black"/>
<path fill-rule="evenodd" clip-rule="evenodd" d="M0 4C0 3.86739 0.0526785 3.74021 0.146447 3.64645C0.240215 3.55268 0.367392 3.5 0.5 3.5H11C11.1326 3.5 11.2598 3.55268 11.3536 3.64645C11.4473 3.74021 11.5 3.86739 11.5 4C11.5 4.13261 11.4473 4.25979 11.3536 4.35355C11.2598 4.44732 11.1326 4.5 11 4.5H0.5C0.367392 4.5 0.240215 4.44732 0.146447 4.35355C0.0526785 4.25979 0 4.13261 0 4Z" fill="black"/>
</svg>
