<svg width="12" height="12" viewBox="0 0 12 12" fill="none" xmlns="http://www.w3.org/2000/svg">
<path d="M0.75 1.33333C0.75 1.17862 0.811458 1.03025 0.920854 0.920854C1.03025 0.811458 1.17862 0.75 1.33333 0.75H10.6667C10.8214 0.75 10.9697 0.811458 11.0791 0.920854C11.1885 1.03025 11.25 1.17862 11.25 1.33333V2.84183C11.25 2.99653 11.1885 3.14488 11.0791 3.25425L7.33758 6.99575C7.22818 7.10512 7.1667 7.25347 7.16667 7.40817V8.91667L4.83333 11.25V7.40817C4.8333 7.25347 4.77182 7.10512 4.66242 6.99575L0.920917 3.25425C0.811513 3.14488 0.750033 2.99653 0.75 2.84183V1.33333Z" stroke="black" stroke-width="1.33333" stroke-linecap="round" stroke-linejoin="round"/>
</svg>
